<?xml version="1.0" standalone="no"?>
<!DOCTYPE svg PUBLIC "-//W3C//DTD SVG 20010904//EN"
 "http://www.w3.org/TR/2001/REC-SVG-20010904/DTD/svg10.dtd">
<svg version="1.0" xmlns="http://www.w3.org/2000/svg"
 width="5000.000000pt" height="5000.000000pt" viewBox="0 0 5000.000000 5000.000000"
 preserveAspectRatio="xMidYMid meet">

<g transform="translate(0.000000,5000.000000) scale(0.100000,-0.100000)"
fill="#000000" stroke="none">
<path d="M16495 40774 c-11 -2 -45 -9 -75 -15 -240 -48 -447 -249 -510 -495
-19 -75 -20 -117 -20 -1617 0 -1399 -1 -1539 -16 -1533 -9 3 -279 6 -600 6
l-584 0 0 123 c-1 351 -98 604 -315 822 -190 191 -427 297 -695 312 -507 27
-952 -301 -1093 -805 -20 -72 -21 -105 -25 -522 -4 -478 1 -544 45 -685 50
-157 127 -287 243 -409 94 -98 167 -155 274 -212 212 -112 446 -149 687 -108
215 37 399 134 560 294 194 193 298 427 315 704 l7 116 598 2 599 3 0 -1406
c0 -1356 1 -1408 19 -1481 66 -256 271 -453 526 -503 72 -14 612 -15 5540 -13
l5460 3 84 29 c206 72 363 231 438 441 l28 80 3 1488 2 1487 590 0 590 0 0
-154 c0 -228 32 -369 124 -542 158 -297 454 -506 785 -554 101 -15 287 -8 388
14 217 47 426 174 575 350 107 125 178 261 225 436 26 93 26 102 31 499 4 427
-2 536 -39 671 -93 335 -370 624 -699 728 -130 41 -173 47 -330 47 -129 -1
-170 -5 -245 -24 -204 -53 -356 -140 -506 -290 -193 -194 -294 -420 -306 -688
l-6 -123 -588 0 -589 0 0 1456 c0 1633 5 1523 -75 1689 -86 179 -235 301 -440
362 -57 17 -306 18 -5510 19 -2997 1 -5459 0 -5470 -2z m10140 -371 l-80 -4 2
-775 3 -775 -21 11 c-11 6 -22 17 -25 25 -3 7 -19 18 -36 24 -16 6 -27 14 -24
19 3 5 0 9 -7 10 -7 0 -46 13 -87 29 l-75 28 -930 0 c-881 0 -933 -1 -985 -19
-139 -47 -260 -143 -325 -260 -19 -34 -44 -101 -55 -148 -20 -85 -20 -106 -18
-1225 l3 -1138 23 -68 c49 -144 143 -257 268 -324 116 -62 83 -60 1084 -64
870 -4 918 -3 975 15 33 10 75 27 92 38 18 11 36 17 41 14 5 -3 16 4 25 15 10
11 21 17 26 15 5 -3 15 2 22 12 13 16 12 16 -6 2 -16 -11 -17 -11 -8 0 7 8 20
15 28 16 13 2 15 -120 15 -1071 l0 -1074 23 -3 c55 -10 -4118 -19 -6953 -16
-3008 3 -3127 4 -3172 21 -67 26 -141 97 -175 165 l-28 57 -3 3090 c-2 3438
-8 3147 67 3243 41 52 89 87 150 108 29 11 989 13 5141 12 2808 -1 5069 -4
5025 -5z m-58 -1160 c-1 -213 -2 -41 -2 382 0 424 1 598 2 388 2 -210 2 -556
0 -770z m-334 -627 c43 -17 93 -76 106 -123 15 -54 15 -2193 0 -2248 -15 -52
-74 -110 -126 -124 -30 -8 -290 -11 -895 -9 -832 3 -854 3 -887 23 -19 11 -48
37 -65 58 l-31 39 -3 1126 -2 1125 21 45 c15 29 37 54 67 73 l46 29 868 0
c707 0 875 -3 901 -14z m484 -158 c-3 -7 -5 -2 -5 12 0 14 2 19 5 13 2 -7 2
-19 0 -25z m0 -2190 c-3 -8 -6 -5 -6 6 -1 11 2 17 5 13 3 -3 4 -12 1 -19z
m-127 -332 c0 -2 -8 -10 -17 -17 -16 -13 -17 -12 -4 4 13 16 21 21 21 13z
m-23 -1663 c-1 -296 -2 -54 -2 537 0 591 1 833 2 538 2 -296 2 -780 0 -1075z"/>
<path d="M17770 38990 c-75 -9 -169 -45 -232 -88 -105 -72 -201 -208 -227
-322 -7 -30 -11 -447 -11 -1211 0 -1132 1 -1169 20 -1230 56 -183 207 -326
395 -374 89 -23 1822 -23 1909 0 144 38 283 146 349 273 70 135 67 73 67 1334
0 1089 -1 1138 -19 1210 -48 185 -182 327 -371 391 -65 22 -67 22 -940 23
-481 1 -904 -2 -940 -6z m1793 -374 c39 -16 94 -76 104 -114 5 -15 8 -526 8
-1137 0 -1106 0 -1110 -21 -1150 -11 -22 -40 -53 -63 -70 l-43 -30 -866 -3
-866 -2 -50 25 c-31 14 -61 39 -76 61 l-25 38 -3 1120 c-3 1217 -5 1173 51
1223 60 55 11 52 950 53 707 0 874 -3 900 -14z"/>
<path d="M32705 33695 c-349 -82 -626 -320 -763 -655 -40 -98 -72 -257 -72
-359 0 -56 -4 -83 -12 -86 -13 -4 -2139 -14 -8463 -40 -3823 -15 -7421 -30
-9802 -41 l-1403 -7 0 -3688 0 -3689 -27 -5 c-375 -80 -678 -343 -801 -695
-55 -158 -57 -186 -57 -670 0 -395 2 -454 18 -529 88 -397 386 -712 773 -814
l89 -24 3 -1926 2 -1927 3645 0 3645 0 0 180 0 180 -3465 0 -3465 0 0 1748 0
1747 85 22 c374 97 670 398 768 783 21 81 22 105 22 560 0 514 -1 530 -59 683
-126 334 -403 584 -741 667 l-70 17 -3 3510 -2 3510 1202 7 c1462 8 4639 21
9718 42 2098 8 4618 19 5600 24 982 4 2012 7 2290 7 l505 -2 6 -200 c6 -174
10 -212 33 -294 103 -365 379 -644 751 -758 85 -26 100 -27 290 -27 189 0 205
1 290 27 368 111 646 391 752 758 l27 94 4 468 c3 501 1 535 -50 690 -97 299
-332 548 -629 665 -189 76 -436 94 -634 47z"/>
<path d="M19681 30939 c-75 -15 -205 -85 -272 -147 -81 -74 -130 -150 -165
-259 l-29 -88 0 -2610 0 -2610 28 -80 c73 -207 236 -355 439 -400 66 -14 289
-15 2288 -13 l2215 3 72 26 c150 55 277 168 343 305 65 134 60 -68 58 2806
l-3 2613 -24 63 c-54 147 -170 276 -303 341 -135 66 40 61 -2393 60 -1215 -1
-2230 -5 -2254 -10z m4429 -539 c20 -20 20 -33 20 -2557 l0 -2537 -22 -23 -21
-23 -2148 0 c-2099 0 -2147 0 -2170 19 l-24 19 0 2540 c0 2484 0 2540 19 2561
l19 21 2154 0 c2140 0 2153 0 2173 -20z"/>
<path d="M21922 29610 c0 -19 2 -27 5 -17 2 9 2 25 0 35 -3 9 -5 1 -5 -18z"/>
<path d="M21865 29490 c-96 -17 -152 -45 -213 -106 -46 -48 -75 -116 -70 -167
l3 -32 -422 -3 -423 -2 0 -181 c0 -134 3 -183 13 -192 21 -19 56 -37 72 -37 8
0 15 -3 15 -7 0 -9 49 -33 67 -33 7 0 13 -4 13 -10 0 -5 9 -10 20 -10 11 0 20
-4 20 -10 0 -12 -37 -14 -42 -2 -4 10 -87 52 -104 52 -8 0 -14 4 -14 9 0 5 -8
11 -17 15 -10 3 -24 9 -30 12 -10 4 -13 -125 -13 -631 l0 -637 28 7 c15 3 29
11 30 16 5 12 32 12 32 0 0 -5 -13 -12 -30 -16 -16 -4 -30 -11 -30 -16 0 -5
-7 -9 -15 -9 -13 0 -15 -32 -15 -225 0 -142 4 -225 10 -225 10 0 46 -27 88
-68 48 -46 180 -142 196 -142 9 0 16 -4 16 -10 0 -5 7 -10 15 -10 8 0 15 -4
15 -10 0 -5 9 -10 20 -10 11 0 20 -4 20 -10 0 -5 7 -10 15 -10 8 0 15 -4 15
-10 0 -5 9 -10 20 -10 11 0 20 -4 20 -10 0 -5 9 -10 20 -10 11 0 20 -4 20 -10
0 -5 9 -10 20 -10 11 0 20 -4 20 -9 0 -5 20 -12 45 -15 24 -4 47 -11 50 -17 4
-5 17 -9 30 -9 13 0 27 -4 30 -10 3 -5 19 -10 35 -10 16 0 31 -4 34 -9 3 -5
20 -11 38 -15 18 -3 62 -11 98 -18 81 -15 462 -15 545 0 33 6 77 14 98 18 20
3 40 10 43 15 3 5 14 9 25 9 11 0 54 11 95 25 41 14 81 25 89 25 8 0 30 9 50
20 20 11 44 20 55 20 11 0 20 5 20 10 0 6 9 10 20 10 11 0 20 3 20 8 0 8 49
32 67 32 7 0 13 5 13 10 0 6 7 10 15 10 8 0 15 5 15 10 0 6 8 10 18 10 9 0 34
11 54 25 20 14 42 25 47 25 6 0 11 4 11 9 0 5 9 13 20 16 11 3 26 12 32 18 7
7 33 26 58 42 25 17 51 36 58 43 7 6 20 12 28 12 8 0 14 5 14 10 0 6 7 10 15
10 13 0 15 32 15 225 0 143 -4 225 -10 225 -5 0 -10 5 -10 10 0 6 7 10 16 10
8 0 13 4 10 9 -6 9 -9 1607 -4 1633 2 10 -85 14 -442 18 -245 3 -446 7 -447 8
0 1 1 20 4 42 3 24 2 40 -4 40 -6 0 -13 17 -16 38 -18 111 -236 210 -402 182z
m167 -614 c26 -14 54 -26 62 -26 9 0 16 -4 16 -10 0 -5 7 -10 15 -10 8 0 15
-4 15 -10 0 -5 9 -10 20 -10 11 0 20 -4 20 -8 0 -5 16 -14 35 -22 19 -8 35
-17 35 -20 0 -3 16 -12 35 -20 19 -8 35 -17 35 -22 0 -4 9 -8 20 -8 11 0 20
-4 20 -9 0 -5 11 -12 24 -15 13 -3 52 -23 87 -45 107 -64 168 -93 180 -85 9 5
10 2 3 -12 -5 -10 -10 -179 -11 -374 l-2 -355 -28 -23 c-29 -23 -75 -50 -173
-99 -30 -16 -56 -31 -58 -35 -2 -5 -11 -8 -21 -8 -9 0 -27 -9 -39 -20 -12 -11
-27 -20 -35 -20 -7 0 -23 -9 -35 -20 -12 -11 -28 -20 -37 -20 -8 0 -15 -3 -15
-8 0 -8 -73 -42 -90 -42 -6 0 -10 -4 -10 -8 0 -5 -16 -14 -35 -22 -19 -8 -35
-17 -35 -20 0 -4 -17 -13 -39 -20 -36 -12 -42 -11 -97 20 -67 38 -95 52 -141
71 -18 8 -33 17 -33 21 0 5 -7 8 -15 8 -8 0 -15 5 -15 10 0 6 -9 10 -20 10
-11 0 -20 5 -20 10 0 6 -9 10 -20 10 -11 0 -20 3 -20 8 0 4 -10 12 -23 18 -12
6 -62 32 -112 59 -49 26 -101 54 -115 61 -14 7 -35 22 -47 34 -12 11 -32 20
-43 20 -20 0 -20 1 -6 16 14 13 16 60 16 364 0 324 -1 349 -17 353 -14 4 -13
5 4 6 12 0 65 26 118 56 54 30 101 55 106 55 5 0 9 4 9 9 0 5 12 12 27 16 15
3 30 10 33 13 3 4 28 18 55 32 28 14 52 27 55 30 3 3 19 12 35 20 17 8 32 17
35 21 16 18 227 116 235 109 6 -4 31 -20 57 -34z m1128 -96 c0 -5 -9 -10 -20
-10 -11 0 -20 -4 -20 -10 0 -5 -7 -10 -15 -10 -8 0 -15 5 -15 10 0 6 7 10 15
10 8 0 15 5 15 10 0 6 9 10 20 10 11 0 20 -4 20 -10z m-90 -40 c0 -5 -7 -10
-15 -10 -8 0 -15 -4 -15 -10 0 -5 -9 -10 -20 -10 -11 0 -20 5 -20 10 0 6 9 10
20 10 11 0 20 5 20 10 0 6 7 10 15 10 8 0 15 -4 15 -10z m-80 -40 c0 -5 -7
-10 -15 -10 -8 0 -15 5 -15 10 0 6 7 10 15 10 8 0 15 -4 15 -10z m-1993 -16
c-3 -3 -12 -4 -19 -1 -8 3 -5 6 6 6 11 1 17 -2 13 -5z m1950 0 c-3 -3 -12 -4
-19 -1 -8 3 -5 6 6 6 11 1 17 -2 13 -5z m-1914 -21 c-7 -2 -19 -2 -25 0 -7 3
-2 5 12 5 14 0 19 -2 13 -5z m1870 0 c-7 -2 -19 -2 -25 0 -7 3 -2 5 12 5 14 0
19 -2 13 -5z m-1813 -19 c0 -2 -9 -4 -21 -4 -11 0 -18 4 -14 10 5 8 35 3 35
-6z m1775 6 c3 -6 -4 -10 -17 -10 -18 0 -20 2 -8 10 19 12 18 12 25 0z m-1742
-27 c-7 -2 -19 -2 -25 0 -7 3 -2 5 12 5 14 0 19 -2 13 -5z m1700 0 c-7 -2 -19
-2 -25 0 -7 3 -2 5 12 5 14 0 19 -2 13 -5z m-1660 -20 c-7 -2 -19 -2 -25 0 -7
3 -2 5 12 5 14 0 19 -2 13 -5z m1624 1 c-3 -3 -12 -4 -19 -1 -8 3 -5 6 6 6 11
1 17 -2 13 -5z m-1584 -21 c-7 -2 -19 -2 -25 0 -7 3 -2 5 12 5 14 0 19 -2 13
-5z m1534 1 c-3 -3 -12 -4 -19 -1 -8 3 -5 6 6 6 11 1 17 -2 13 -5z m-1494 -21
c-7 -2 -19 -2 -25 0 -7 3 -2 5 12 5 14 0 19 -2 13 -5z m1460 0 c-7 -2 -19 -2
-25 0 -7 3 -2 5 12 5 14 0 19 -2 13 -5z m-1465 -770 c-10 -2 -18 -9 -18 -14 0
-5 -10 -9 -22 -9 -23 0 -23 1 2 14 14 8 32 14 40 14 10 0 9 -2 -2 -5z m1435 0
c-7 -2 -19 -2 -25 0 -7 3 -2 5 12 5 14 0 19 -2 13 -5z m37 -23 c0 -5 8 -10 18
-11 9 0 12 -3 6 -5 -6 -3 -24 2 -40 11 -26 13 -27 15 -6 15 12 0 22 -4 22 -10z
m-1533 -16 c-3 -3 -12 -4 -19 -1 -8 3 -5 6 6 6 11 1 17 -2 13 -5z m-24 -21
c-7 -2 -19 -2 -25 0 -7 3 -2 5 12 5 14 0 19 -2 13 -5z m1620 0 c-7 -2 -19 -2
-25 0 -7 3 -2 5 12 5 14 0 19 -2 13 -5z m-1656 -19 c-3 -3 -12 -4 -19 -1 -8 3
-5 6 6 6 11 1 17 -2 13 -5z m1696 -1 c-7 -2 -19 -2 -25 0 -7 3 -2 5 12 5 14 0
19 -2 13 -5z m-1726 -19 c-3 -3 -12 -4 -19 -1 -8 3 -5 6 6 6 11 1 17 -2 13 -5z
m-53 -29 c-10 -8 -25 -15 -31 -15 -7 0 -13 -4 -13 -10 0 -5 -7 -10 -15 -10 -8
0 -15 -4 -15 -10 0 -5 -6 -10 -13 -10 -7 0 -23 -9 -35 -20 -12 -11 -28 -20
-36 -20 -8 0 -16 -6 -19 -12 -4 -10 -7 -10 -18 0 -11 10 -10 12 4 12 9 0 17 5
17 10 0 6 9 10 20 10 11 0 20 5 20 10 0 6 7 10 15 10 8 0 15 5 15 10 0 6 6 10
13 10 7 0 22 9 34 19 18 17 39 26 67 30 6 0 1 -6 -10 -14z m1876 -5 c0 -5 9
-10 20 -10 11 0 20 -4 20 -10 0 -5 7 -10 15 -10 8 0 15 -4 15 -10 0 -5 7 -10
15 -10 8 0 15 -4 15 -10 0 -5 9 -10 20 -10 11 0 20 -4 20 -10 0 -5 7 -10 16
-10 9 0 24 -8 33 -18 9 -11 23 -21 31 -25 12 -4 12 -6 -2 -6 -9 -1 -23 6 -32
14 -8 8 -22 15 -30 15 -9 0 -16 5 -16 10 0 6 -7 10 -15 10 -9 0 -25 9 -37 20
-12 11 -28 20 -35 20 -7 0 -13 4 -13 8 0 5 -16 14 -35 22 -36 14 -47 30 -20
30 8 0 15 -4 15 -10z m-810 -310 c73 -11 140 -29 155 -42 5 -4 17 -8 27 -8 10
0 26 -4 36 -9 9 -5 32 -16 50 -23 17 -7 32 -15 32 -19 0 -3 16 -11 35 -19 19
-8 35 -17 35 -21 0 -4 14 -10 30 -14 17 -4 30 -11 30 -16 0 -5 7 -9 15 -9 8 0
15 -4 15 -10 0 -5 6 -10 13 -10 7 0 19 -9 27 -20 8 -11 19 -20 25 -20 6 0 17
-9 25 -20 8 -11 20 -20 26 -20 21 0 26 -34 7 -47 -10 -7 -22 -16 -28 -20 -79
-65 -240 -149 -304 -159 -23 -4 -44 -11 -47 -15 -3 -5 -16 -9 -29 -9 -13 0
-27 -4 -30 -10 -3 -5 -28 -10 -55 -10 -27 0 -50 -5 -52 -11 -5 -16 -401 -16
-406 0 -2 6 -23 11 -47 11 -24 0 -47 5 -50 10 -3 6 -17 10 -30 10 -13 0 -26 4
-29 9 -3 5 -26 12 -51 16 -54 8 -127 41 -296 137 -13 7 -26 16 -29 19 -3 3
-15 11 -27 18 -13 6 -23 15 -23 20 0 13 59 71 73 71 7 0 19 9 27 20 8 11 20
20 27 20 7 0 13 5 13 10 0 6 7 10 15 10 8 0 15 5 15 10 0 6 5 10 12 10 15 0
122 52 126 62 2 4 9 8 16 8 7 0 31 9 54 20 22 11 47 20 55 20 7 0 17 4 23 9 5
6 52 19 104 30 106 22 284 27 390 11z"/>
<path d="M21944 28632 c-49 -41 -64 -76 -64 -156 0 -66 -2 -76 -18 -76 -10 0
-24 9 -32 20 -8 11 -18 20 -23 20 -4 0 -17 9 -29 20 -12 11 -28 20 -35 20 -7
0 -13 5 -13 10 0 6 -7 10 -15 10 -8 0 -15 4 -15 9 0 11 -74 23 -96 14 -15 -5
-16 -18 -11 -110 2 -56 2 -103 0 -103 -14 0 -89 24 -97 32 -6 4 -38 8 -73 8
-47 0 -63 -4 -63 -14 0 -20 39 -139 48 -146 4 -3 19 -21 32 -40 51 -76 137
-150 175 -150 8 0 15 -3 15 -7 0 -11 50 -33 71 -33 10 0 21 -4 24 -10 3 -5 26
-10 51 -10 28 0 43 -4 39 -10 -4 -6 18 -10 59 -10 l66 0 0 -212 c0 -224 4
-258 26 -258 12 0 14 42 14 235 l0 235 60 0 c33 0 60 4 60 10 0 6 11 10 25 10
14 0 35 5 48 12 47 24 57 28 72 28 8 0 15 3 15 8 0 4 19 16 43 27 40 19 217
184 217 203 0 5 9 19 20 32 25 28 26 50 3 49 -22 0 -96 -14 -144 -27 -53 -14
-61 -5 -42 48 8 25 18 75 21 113 l5 67 -37 0 c-20 0 -36 -4 -36 -10 0 -5 -6
-10 -13 -10 -18 0 -67 -24 -67 -32 0 -5 -8 -8 -18 -8 -10 0 -24 -9 -32 -20 -8
-11 -21 -20 -29 -20 -7 0 -22 -10 -32 -21 -31 -35 -49 -10 -50 70 -1 85 -7
102 -49 156 -39 49 -46 52 -76 27z"/>
<path d="M21885 27302 c-28 -3 -115 -40 -115 -49 0 -15 33 -33 60 -33 18 0 29
-4 25 -10 -8 -12 -65 -13 -65 -1 0 11 -35 21 -46 12 -5 -3 -15 -14 -22 -23
-12 -15 -12 -20 1 -33 9 -8 27 -15 41 -15 14 0 28 -4 31 -10 4 -6 -8 -10 -29
-10 -20 0 -36 5 -36 10 0 6 -9 10 -20 10 -17 0 -20 -7 -20 -45 l0 -45 115 0
115 0 0 25 c0 24 -3 25 -61 25 -42 0 -58 3 -53 11 4 7 27 10 60 7 30 -3 55 -1
55 4 6 45 2 53 -26 59 -29 7 -29 7 -4 8 25 1 27 5 31 49 3 26 2 49 -1 52 -3 3
-19 4 -36 2z"/>
<path d="M21955 27301 c-3 -2 -5 -26 -5 -52 0 -37 4 -49 18 -52 16 -4 16 -5
-1 -6 -14 -1 -18 -8 -15 -33 l3 -32 56 3 c33 1 60 -2 64 -8 4 -7 -15 -11 -59
-11 -65 0 -72 -4 -60 -34 5 -13 25 -16 120 -16 l114 0 0 40 c0 28 -5 43 -16
47 -9 3 -13 12 -9 21 8 21 -40 61 -65 55 -11 -3 -20 0 -20 6 0 6 5 11 10 11
20 0 9 21 -17 33 -16 6 -30 14 -33 18 -6 8 -79 17 -85 10z m110 -91 c-3 -5
-19 -10 -36 -10 -16 0 -29 5 -29 10 0 6 16 10 36 10 21 0 33 -4 29 -10z m85
-70 c0 -5 -14 -10 -31 -10 -17 0 -28 4 -24 10 3 6 17 10 31 10 13 0 24 -4 24
-10z"/>
<path d="M21690 27020 c0 -26 4 -30 28 -30 23 -1 24 -2 10 -11 -24 -13 -22
-28 5 -63 20 -25 26 -27 45 -17 12 6 31 16 42 21 11 6 37 10 59 10 43 0 50 11
43 62 -4 23 -10 28 -41 31 l-36 4 38 1 c20 1 37 7 37 12 0 6 -45 10 -115 10
l-115 0 0 -30z m130 -14 c0 -8 -48 -12 -66 -5 -13 5 -7 8 24 8 23 1 42 -1 42
-3z"/>
<path d="M21950 27040 c0 -5 19 -11 43 -11 l42 -2 -40 -6 -40 -6 0 -95 c0 -79
2 -94 15 -91 8 2 32 7 52 11 40 8 88 35 88 49 0 13 -30 24 -90 31 l-55 7 68 2
c39 0 67 -3 67 -9 0 -17 25 -11 48 10 26 25 29 50 5 51 -12 1 -9 4 7 8 18 5
26 15 28 34 l3 27 -120 0 c-74 0 -121 -4 -121 -10z m173 -37 c-13 -2 -33 -2
-45 0 -13 2 -3 4 22 4 25 0 35 -2 23 -4z"/>
<path d="M21835 26906 c-11 -9 -28 -16 -37 -16 -10 0 -18 -4 -18 -9 0 -16 28
-32 67 -38 21 -3 44 -10 51 -16 18 -14 24 -3 25 45 1 42 0 43 -34 46 -19 2
-43 -4 -54 -12z"/>
<path d="M20550 26755 c0 -18 119 -239 131 -243 13 -5 11 -22 -2 -22 -7 0 -19
-8 -28 -18 -9 -9 -28 -23 -43 -31 -16 -8 -28 -18 -28 -23 0 -4 -7 -8 -15 -8
-8 0 -15 -4 -15 -9 0 -5 -10 -11 -22 -14 -20 -3 -21 -5 -6 -11 11 -5 23 -3 32
6 32 31 57 48 69 48 7 0 19 9 27 20 8 11 20 20 27 20 23 0 26 41 4 71 -12 15
-21 33 -21 39 0 5 -4 10 -9 10 -5 0 -12 14 -16 30 -4 17 -10 30 -14 30 -7 0
-16 15 -39 63 -2 4 10 7 28 7 18 0 29 4 25 10 -3 6 -19 10 -36 10 -16 0 -29 5
-29 10 0 6 -4 10 -10 10 -5 0 -10 -2 -10 -5z"/>
<path d="M23310 26751 c0 -6 -16 -11 -35 -11 -19 0 -35 -4 -35 -10 0 -5 12
-10 26 -10 14 0 24 -3 22 -7 -14 -32 -75 -144 -95 -175 -21 -34 -22 -41 -9
-53 8 -8 18 -15 23 -15 5 0 15 -9 23 -20 8 -11 20 -20 27 -20 7 0 13 -4 13
-10 0 -5 7 -10 15 -10 8 0 15 -4 15 -10 0 -5 7 -10 15 -10 8 0 15 -4 15 -10 0
-5 7 -10 15 -10 8 0 15 5 15 10 0 6 -6 10 -13 10 -7 0 -23 9 -35 20 -12 11
-26 20 -32 20 -5 0 -10 5 -10 10 0 6 -6 10 -13 10 -7 0 -19 9 -27 20 -8 11
-20 20 -27 20 -17 0 -17 15 0 32 7 7 27 42 45 78 18 36 44 84 58 107 16 26 21
44 14 48 -5 3 -10 1 -10 -4z"/>
<path d="M20645 26710 c-4 -6 7 -10 24 -10 17 0 31 5 31 10 0 6 -11 10 -24 10
-14 0 -28 -4 -31 -10z"/>
<path d="M23175 26710 c-4 -6 7 -10 25 -10 18 0 29 4 25 10 -3 6 -15 10 -25
10 -10 0 -22 -4 -25 -10z"/>
<path d="M20723 26693 c9 -2 25 -2 35 0 9 3 1 5 -18 5 -19 0 -27 -2 -17 -5z"/>
<path d="M23113 26693 c9 -2 25 -2 35 0 9 3 1 5 -18 5 -19 0 -27 -2 -17 -5z"/>
<path d="M20803 26673 c9 -2 25 -2 35 0 9 3 1 5 -18 5 -19 0 -27 -2 -17 -5z"/>
<path d="M23043 26673 c9 -2 25 -2 35 0 9 3 1 5 -18 5 -19 0 -27 -2 -17 -5z"/>
<path d="M20878 26653 c12 -2 30 -2 40 0 9 3 -1 5 -23 4 -22 0 -30 -2 -17 -4z"/>
<path d="M22958 26653 c12 -2 30 -2 40 0 9 3 -1 5 -23 4 -22 0 -30 -2 -17 -4z"/>
<path d="M20968 26633 c12 -2 30 -2 40 0 9 3 -1 5 -23 4 -22 0 -30 -2 -17 -4z"/>
<path d="M22868 26633 c12 -2 32 -2 45 0 12 2 2 4 -23 4 -25 0 -35 -2 -22 -4z"/>
<path d="M21058 26613 c12 -2 32 -2 45 0 12 2 2 4 -23 4 -25 0 -35 -2 -22 -4z"/>
<path d="M22778 26613 c12 -2 32 -2 45 0 12 2 2 4 -23 4 -25 0 -35 -2 -22 -4z"/>
<path d="M21125 26592 c-33 -20 -220 -82 -247 -82 -9 0 -20 -4 -23 -10 -3 -5
-19 -10 -35 -10 -25 0 -31 -5 -39 -37 -5 -21 -13 -67 -16 -103 -4 -36 -12 -69
-19 -73 -8 -6 -8 -10 2 -14 14 -5 17 -40 3 -45 -5 -1 -12 -40 -16 -85 l-7 -83
38 2 c37 1 38 1 7 5 -29 4 -33 8 -33 34 0 16 4 29 9 29 5 0 11 19 14 43 2 23
12 97 22 165 17 116 19 122 41 122 12 0 26 -4 29 -10 3 -5 25 -10 49 -10 23 0
46 -4 52 -9 10 -9 61 -18 157 -27 31 -3 57 -10 57 -15 0 -12 87 -12 95 0 3 6
-14 11 -37 13 l-43 3 4 75 c7 139 8 135 -14 138 -11 1 -33 -6 -50 -16z m54
-69 c-1 -27 -4 -61 -8 -78 -7 -33 -2 -32 -121 -19 -30 3 -59 10 -64 15 -6 5
-24 9 -42 9 -17 0 -42 9 -55 20 l-24 19 37 1 c20 0 39 4 42 9 3 5 27 12 53 16
27 4 53 10 58 13 11 7 105 40 118 41 4 1 6 -20 6 -46z"/>
<path d="M22680 26600 c-12 -7 -13 -13 -3 -28 9 -15 18 -123 14 -169 -1 -9
-17 -13 -47 -13 -27 0 -43 -4 -39 -10 3 -5 29 -10 56 -10 31 0 48 4 44 10 -4
6 16 10 54 10 33 0 63 5 66 10 3 6 25 10 49 10 23 0 46 4 52 9 5 5 27 11 49
14 22 3 52 8 66 12 24 6 26 4 37 -47 7 -29 19 -102 28 -163 9 -60 18 -124 21
-142 5 -30 3 -32 -28 -36 -34 -4 -34 -4 5 -5 l39 -2 -8 82 c-4 46 -11 90 -15
99 -5 9 -5 20 -1 25 5 5 3 43 -5 84 -7 41 -16 92 -19 113 -5 29 -10 37 -26 37
-11 0 -42 7 -70 15 -27 8 -73 22 -101 30 -58 17 -70 22 -141 54 -54 24 -56 24
-77 11z m123 -64 c42 -14 85 -26 95 -26 10 0 22 -4 28 -9 5 -5 24 -11 43 -13
33 -3 34 -4 17 -20 -11 -11 -33 -18 -57 -18 -21 0 -39 -4 -39 -10 0 -5 -24
-10 -54 -10 -30 0 -58 -4 -61 -10 -3 -5 -19 -10 -34 -10 -33 0 -41 24 -41 117
0 43 3 53 13 46 6 -6 47 -22 90 -37z"/>
<path d="M20476 26355 c-19 -14 -18 -15 12 -15 24 0 30 4 26 15 -7 18 -14 18
-38 0z"/>
<path d="M21305 26360 c3 -5 31 -10 61 -10 30 0 54 5 54 10 0 6 -27 10 -61 10
-37 0 -58 -4 -54 -10z"/>
<path d="M22460 26360 c0 -5 24 -10 54 -10 30 0 58 5 61 10 4 6 -17 10 -54 10
-34 0 -61 -4 -61 -10z"/>
<path d="M23367 26363 c-14 -13 -6 -23 19 -23 23 0 24 2 10 15 -16 17 -20 18
-29 8z"/>
<path d="M21513 26343 c26 -2 68 -2 95 0 26 2 4 3 -48 3 -52 0 -74 -1 -47 -3z"/>
<path d="M22273 26343 c26 -2 67 -2 90 0 23 2 2 3 -48 3 -49 0 -68 -1 -42 -3z"/>
<path d="M20530 26330 c0 -5 14 -10 31 -10 17 0 28 4 24 10 -3 6 -17 10 -31
10 -13 0 -24 -4 -24 -10z"/>
<path d="M21780 26330 c-25 -4 45 -7 160 -7 133 0 189 2 160 8 -54 9 -257 9
-320 -1z"/>
<path d="M23290 26330 c0 -5 11 -10 25 -10 14 0 25 5 25 10 0 6 -11 10 -25 10
-14 0 -25 -4 -25 -10z"/>
<path d="M20600 26310 c0 -5 14 -10 31 -10 17 0 28 4 24 10 -3 6 -17 10 -31
10 -13 0 -24 -4 -24 -10z"/>
<path d="M23225 26310 c-4 -6 5 -10 19 -10 14 0 26 5 26 10 0 6 -9 10 -19 10
-11 0 -23 -4 -26 -10z"/>
<path d="M20670 26290 c0 -5 14 -10 31 -10 17 0 28 4 24 10 -3 6 -17 10 -31
10 -13 0 -24 -4 -24 -10z"/>
<path d="M23145 26290 c-4 -6 7 -10 24 -10 17 0 31 5 31 10 0 6 -11 10 -24 10
-14 0 -28 -4 -31 -10z"/>
<path d="M21562 26268 c-7 -7 -12 -19 -12 -28 0 -9 -5 -21 -12 -28 -9 -9 -9
-12 0 -12 8 0 12 -25 13 -77 l1 -78 12 75 11 75 50 6 50 6 -52 1 c-28 1 -54 6
-57 11 -9 14 5 41 21 41 8 0 11 5 8 10 -8 13 -18 13 -33 -2z"/>
<path d="M21625 26270 c-3 -5 3 -10 15 -10 12 0 18 5 15 10 -3 6 -10 10 -15
10 -5 0 -12 -4 -15 -10z"/>
<path d="M21290 26240 c0 -24 -13 -26 -30 -5 -22 27 -80 16 -80 -16 0 -14 7
-19 28 -19 25 -1 26 -2 9 -14 -13 -10 -15 -16 -6 -21 6 -4 15 -1 20 6 13 22
11 30 -11 36 -28 7 -25 33 3 33 35 0 59 -54 47 -105 -5 -22 -5 -44 -1 -48 5
-5 14 22 21 60 7 37 17 71 22 74 10 7 0 39 -13 39 -5 0 -9 -9 -9 -20z"/>
<path d="M21665 26250 c-3 -5 0 -10 9 -10 8 0 17 -6 19 -12 4 -8 6 -9 6 -2 1
18 -26 37 -34 24z"/>
<path d="M21917 26243 c-4 -3 -7 -15 -7 -25 0 -21 -35 -25 -43 -5 -3 6 -6 2
-6 -10 -1 -13 -5 -23 -10 -23 -5 0 -7 -9 -4 -20 4 -16 0 -20 -21 -20 -31 0
-35 26 -8 46 9 7 12 14 5 14 -6 0 -15 -5 -18 -10 -4 -7 -12 -7 -25 0 -25 13
-51 13 -27 -1 21 -12 23 -49 1 -49 -8 0 -12 -5 -9 -10 3 -6 17 -7 31 -4 18 5
24 2 24 -9 0 -13 54 -77 65 -77 2 0 5 33 7 73 3 64 5 72 23 72 18 0 21 -8 25
-80 l5 -80 5 85 c3 47 2 87 -2 88 -15 7 -8 41 10 45 14 4 14 5 1 6 -9 0 -19
-2 -22 -6z m-67 -143 c0 -11 -4 -20 -10 -20 -5 0 -10 9 -10 20 0 11 5 20 10
20 6 0 10 -9 10 -20z"/>
<path d="M22013 26243 c15 -2 25 -9 22 -14 -4 -5 1 -9 11 -9 13 0 14 3 4 15
-7 8 -24 14 -39 14 l-26 -2 28 -4z"/>
<path d="M22612 26243 c10 -2 20 -15 23 -29 3 -13 7 -35 10 -49 4 -18 1 -25
-9 -25 -11 0 -9 -7 8 -25 13 -14 26 -25 29 -25 3 0 -2 26 -10 57 -8 31 -13 67
-10 80 4 20 0 23 -27 22 -17 -1 -23 -3 -14 -6z"/>
<path d="M21362 26220 c-26 -22 -28 -45 -6 -68 15 -15 16 -14 10 6 -8 25 1 62
15 62 5 0 19 -8 30 -19 18 -16 20 -27 15 -82 -4 -43 -3 -56 3 -39 5 14 9 42
10 62 1 21 7 43 14 50 14 12 11 48 -3 48 -4 0 -11 -7 -14 -16 -6 -14 -9 -15
-29 -1 -20 13 -25 13 -45 -3z"/>
<path d="M22513 26230 c-13 -6 -23 -18 -23 -30 0 -17 -6 -20 -49 -20 -41 0
-51 -4 -56 -20 -12 -37 13 -78 30 -50 3 6 1 10 -4 10 -17 0 -13 40 5 47 9 3
20 0 26 -8 7 -11 11 -11 15 -1 9 22 32 13 39 -15 3 -16 10 -41 14 -58 8 -29 8
-29 9 10 1 22 -3 54 -7 70 -12 42 -5 55 29 55 30 0 51 -26 33 -39 -11 -7 -12
-31 -1 -31 30 0 31 1 18 9 -12 8 -12 12 -2 25 7 8 10 24 6 36 -7 22 -42 26
-82 10z"/>
<path d="M22319 26214 c-1 -11 0 -23 1 -29 1 -5 7 -41 12 -78 7 -48 14 -65 21
-58 7 7 7 26 -1 62 -21 87 -20 89 46 91 l57 2 -55 3 c-30 3 -60 9 -67 15 -10
8 -13 6 -14 -8z"/>
<path d="M21677 26186 c-15 -12 -16 -14 -2 -20 17 -6 21 -66 5 -66 -5 0 -10 5
-10 10 0 6 -7 10 -16 10 -11 0 -15 6 -11 20 4 15 0 20 -13 20 -28 0 -33 -29
-7 -40 32 -14 64 -44 70 -66 2 -10 5 1 6 26 1 25 5 62 10 83 10 40 0 47 -32
23z"/>
<path d="M21973 26193 c9 -2 25 -2 35 0 9 3 1 5 -18 5 -19 0 -27 -2 -17 -5z"/>
<path d="M22047 26194 c-3 -3 -3 -12 0 -20 4 -10 -3 -14 -23 -15 l-29 -1 30
-7 c33 -7 46 -37 20 -47 -10 -4 -22 1 -31 15 -18 24 -34 28 -34 6 0 -8 6 -15
13 -15 15 0 62 -47 70 -70 3 -8 6 22 6 68 1 74 3 83 19 80 12 -2 19 -16 23
-45 3 -24 8 -45 11 -48 3 -4 18 5 33 19 37 35 44 33 38 -11 -3 -25 1 -45 11
-58 13 -18 15 -15 15 48 0 60 -2 67 -20 67 -10 0 -19 -4 -19 -10 0 -5 -9 -10
-19 -10 -11 0 -22 -6 -24 -12 -3 -7 -6 4 -6 24 -1 34 1 37 32 41 17 2 0 5 -39
5 -39 1 -73 -1 -77 -4z"/>
<path d="M22257 26193 c-3 -5 -3 -26 0 -48 9 -66 7 -97 -8 -106 -8 -5 -9 -9
-3 -9 26 0 35 28 28 88 -5 52 -4 61 12 71 18 10 18 10 -3 11 -12 0 -24 -3 -26
-7z"/>
<path d="M22600 26100 c-12 -8 -12 -10 3 -16 21 -8 35 2 21 16 -5 5 -15 6 -24
0z"/>
<path d="M20834 26029 c12 -8 25 -8 40 -1 18 9 16 11 -19 11 -33 0 -37 -1 -21
-10z"/>
<path d="M22998 26028 c16 -8 28 -8 45 0 19 9 17 11 -23 11 -40 0 -42 -2 -22
-11z"/>
<path d="M20928 26013 c12 -2 32 -2 45 0 12 2 2 4 -23 4 -25 0 -35 -2 -22 -4z"/>
<path d="M22903 26013 c15 -2 37 -2 50 0 12 2 0 4 -28 4 -27 0 -38 -2 -22 -4z"/>
<path d="M21015 26000 c3 -5 24 -10 46 -10 21 0 39 5 39 10 0 6 -21 10 -46 10
-27 0 -43 -4 -39 -10z"/>
<path d="M22775 26000 c-4 -6 10 -10 34 -10 22 0 43 5 46 10 4 6 -10 10 -34
10 -22 0 -43 -4 -46 -10z"/>
<path d="M21130 25980 c0 -5 25 -10 56 -10 34 0 53 4 49 10 -3 6 -28 10 -56
10 -27 0 -49 -4 -49 -10z"/>
<path d="M22645 25980 c-4 -6 15 -10 50 -10 35 0 54 4 50 10 -3 6 -26 10 -50
10 -24 0 -47 -4 -50 -10z"/>
<path d="M21270 25960 c0 -6 27 -10 60 -10 33 0 60 4 60 10 0 6 -27 10 -60 10
-33 0 -60 -4 -60 -10z"/>
<path d="M22490 25960 c0 -5 25 -10 55 -10 30 0 55 5 55 10 0 6 -25 10 -55 10
-30 0 -55 -4 -55 -10z"/>
<path d="M21445 25940 c3 -6 47 -10 98 -9 61 0 85 3 72 9 -29 12 -178 12 -170
0z"/>
<path d="M22260 25940 c-10 -7 14 -10 78 -10 55 0 92 4 92 10 0 13 -150 13
-170 0z"/>
<path d="M21680 25920 c-10 -6 76 -10 253 -10 176 0 266 3 262 10 -8 13 -495
13 -515 0z"/>
<path d="M13650 29556 l0 -566 140 0 140 0 0 -1190 0 -1190 -140 0 -140 0 0
-570 0 -570 978 2 977 3 3 562 2 562 -132 3 -133 3 -3 378 -2 377 206 -2 205
-3 115 -280 c63 -154 149 -363 191 -465 41 -102 86 -210 99 -240 13 -30 98
-237 190 -460 91 -223 170 -413 175 -423 9 -16 48 -17 657 -15 l647 3 3 563 2
562 -125 0 c-121 0 -125 1 -141 25 -9 13 -70 140 -136 282 -133 287 -137 295
-238 513 -40 85 -78 169 -86 187 l-13 31 74 56 c212 160 372 464 421 801 20
141 15 401 -10 540 -46 248 -172 506 -329 674 -237 253 -459 336 -1052 392
-79 8 -539 13 -1332 16 l-1213 5 0 -566z m2190 -496 c130 -22 207 -80 263
-198 31 -66 32 -70 32 -212 0 -136 -2 -148 -27 -202 -34 -74 -98 -142 -162
-173 -67 -32 -182 -45 -418 -45 l-188 0 0 427 0 426 218 -6 c119 -4 246 -11
282 -17z"/>
<path d="M28925 29856 c-218 -44 -381 -146 -533 -334 -93 -117 -135 -183 -207
-333 -92 -194 -161 -436 -197 -699 -41 -298 -27 -724 33 -1014 111 -532 390
-941 740 -1084 154 -63 376 -78 549 -37 159 38 342 158 464 304 493 591 592
1733 218 2536 -169 364 -365 557 -649 641 -110 32 -309 41 -418 20z m262 -847
c105 -100 143 -339 143 -904 0 -451 -21 -674 -75 -807 -53 -130 -151 -182
-236 -125 -96 65 -137 205 -160 547 -13 207 -7 764 10 920 25 223 71 339 155
391 48 31 117 21 163 -22z"/>
<path d="M34690 29855 c-91 -20 -213 -83 -295 -152 -206 -173 -392 -543 -474
-945 -49 -234 -55 -318 -55 -668 0 -297 2 -351 22 -478 78 -496 260 -889 502
-1085 289 -233 750 -264 1037 -69 244 166 434 541 509 1004 9 59 14 113 11
121 -4 11 -515 327 -530 327 -2 0 -7 -30 -10 -67 -10 -105 -52 -310 -82 -398
-49 -148 -129 -251 -211 -274 -48 -13 -60 -14 -107 0 -120 33 -202 203 -244
504 -21 151 -24 667 -4 820 46 364 139 535 290 535 134 0 250 -158 311 -425
l16 -70 257 -3 257 -2 0 635 0 635 -250 0 -250 0 0 -96 0 -97 -74 71 c-133
126 -265 181 -451 188 -73 2 -132 -1 -175 -11z"/>
<path d="M36660 29826 c-198 -55 -366 -255 -444 -526 -81 -286 -75 -690 15
-954 92 -269 203 -408 531 -668 272 -217 308 -266 308 -421 0 -144 -38 -197
-140 -197 -46 0 -65 5 -101 29 -76 51 -132 161 -168 326 l-18 80 -236 3 -237
2 2 -557 3 -558 235 0 235 0 5 95 c5 94 5 95 23 69 25 -37 133 -122 197 -154
151 -77 337 -74 478 7 147 84 289 290 357 518 125 417 56 966 -163 1286 -50
75 -217 237 -442 430 -188 162 -254 228 -271 272 -17 43 -14 171 6 219 21 53
52 73 111 73 118 0 202 -103 255 -313 l22 -87 234 0 233 0 0 500 0 500 -237
-2 -238 -3 -3 -84 -3 -83 -67 64 c-107 104 -216 149 -356 147 -45 0 -101 -6
-126 -13z"/>
<path d="M25460 29381 l0 -421 85 0 85 0 0 -870 0 -870 -85 0 -85 0 2 -417 3
-418 690 0 c741 1 827 6 1020 57 281 74 458 287 524 630 73 380 0 741 -200
979 -23 27 -72 72 -111 101 l-70 52 29 20 c15 10 62 53 103 95 85 86 147 196
176 311 25 103 30 374 9 501 -31 186 -103 349 -201 457 -92 102 -208 155 -409
187 -96 16 -201 19 -837 22 l-728 5 0 -421z m1173 -361 c83 -12 136 -38 159
-78 46 -78 61 -229 33 -337 -36 -136 -85 -165 -279 -165 l-126 0 0 288 c0 159
3 292 7 295 9 10 128 8 206 -3z m77 -1246 c76 -22 96 -39 127 -102 25 -51 28
-70 32 -178 4 -149 -12 -217 -64 -269 -50 -49 -113 -65 -262 -65 l-123 0 0
315 0 315 118 0 c79 0 136 -5 172 -16z"/>
<path d="M30315 29788 c-3 -7 -4 -335 -3 -728 l3 -715 197 -3 198 -2 2 307 3
308 98 3 97 3 0 -871 0 -870 -85 0 -85 0 2 -417 3 -418 565 0 565 0 3 417 2
417 -87 3 -88 3 0 865 0 865 98 3 97 3 0 -311 0 -310 200 0 200 0 0 730 0 730
-990 0 c-783 0 -992 -3 -995 -12z"/>
<path d="M32487 29793 c-4 -3 -7 -192 -7 -419 l0 -413 93 -3 92 -3 0 -865 0
-865 -93 -3 -92 -3 2 -417 3 -417 575 0 575 0 3 418 2 417 -90 0 -90 0 0 870
0 870 90 0 90 0 0 420 0 420 -573 0 c-316 0 -577 -3 -580 -7z"/>
<path d="M27005 24283 c-249 -53 -542 -258 -746 -523 -361 -468 -542 -1187
-500 -1992 17 -319 42 -501 101 -739 176 -702 600 -1166 1145 -1254 49 -8 120
-15 158 -15 l67 0 0 203 0 204 -60 16 c-43 12 -71 28 -99 56 -45 45 -94 143
-111 221 -8 41 -10 449 -8 1580 3 1388 5 1530 20 1579 43 138 116 228 207 255
l46 13 3 207 2 206 -77 -1 c-43 0 -109 -7 -148 -16z"/>
<path d="M27400 24091 l0 -208 34 -6 c85 -14 194 -87 282 -188 180 -209 305
-501 399 -929 32 -145 66 -217 118 -243 72 -37 158 8 194 101 17 44 18 97 18
802 l0 755 -23 43 c-28 52 -74 82 -125 82 -69 0 -94 -22 -142 -124 -68 -147
-79 -148 -373 -11 -150 69 -272 114 -349 128 l-33 7 0 -209z"/>
<path d="M28885 24194 c-16 -8 -38 -23 -49 -32 -69 -62 -57 -235 20 -289 16
-11 55 -32 87 -46 102 -46 92 142 92 -1802 0 -1684 0 -1700 -20 -1735 -14 -25
-38 -44 -83 -65 -114 -55 -149 -111 -140 -223 8 -91 68 -146 171 -157 34 -3
316 -5 627 -3 l565 3 5 1935 c4 1422 8 1942 16 1960 19 41 55 67 123 87 113
35 161 92 161 193 0 87 -44 154 -119 179 -24 8 -237 11 -730 11 -612 0 -700
-2 -726 -16z"/>
<path d="M31510 24188 c-96 -49 -119 -188 -48 -290 10 -15 51 -42 93 -62 123
-58 109 121 116 -1551 3 -797 9 -1461 12 -1475 3 -14 11 -61 17 -105 35 -248
123 -419 304 -593 251 -240 551 -352 942 -352 l124 0 0 219 0 219 -54 22
c-110 44 -158 107 -199 262 l-22 83 0 1585 c0 1811 -10 1631 93 1677 83 38
112 61 133 107 38 84 13 201 -54 250 -28 21 -40 21 -720 24 l-692 3 -45 -23z"/>
<path d="M33560 24188 c-54 -27 -80 -73 -80 -138 0 -97 20 -129 136 -215 107
-80 174 -183 217 -333 22 -77 22 -81 25 -1257 4 -1252 2 -1301 -43 -1482 -70
-276 -256 -489 -478 -547 -32 -8 -62 -18 -67 -21 -6 -4 -10 -91 -10 -222 l0
-216 43 6 c125 17 318 119 449 236 156 141 277 367 341 637 50 211 50 198 57
1524 7 1404 2 1308 80 1477 42 90 87 144 184 218 35 28 74 67 87 89 43 77 22
191 -45 239 -31 22 -35 22 -441 25 -409 3 -410 2 -455 -20z"/>
<path d="M34970 24199 c-32 -13 -68 -47 -86 -81 -21 -40 -18 -141 5 -186 25
-50 44 -65 122 -100 116 -52 104 153 104 -1802 0 -1970 15 -1748 -120 -1815
-69 -35 -83 -46 -102 -85 -49 -97 -21 -219 60 -262 l42 -23 620 0 620 0 3
2183 2 2182 -622 -1 c-389 0 -632 -4 -648 -10z"/>
<path d="M36412 24023 l3 -188 25 -3 c60 -7 126 -37 168 -75 55 -51 87 -113
112 -219 18 -76 20 -119 20 -514 0 -367 -2 -438 -16 -485 -46 -153 -116 -224
-249 -248 -32 -6 -60 -11 -62 -11 -2 0 -3 -79 -3 -175 l0 -175 28 -6 c163 -36
252 -128 286 -296 23 -109 24 -1017 1 -1132 -34 -179 -112 -265 -257 -282
l-58 -7 0 -185 0 -185 263 6 c365 9 488 30 652 111 276 137 458 381 538 721
29 126 31 486 3 615 -47 218 -131 387 -255 520 -28 30 -51 56 -51 57 0 2 334
3 742 3 l741 0 -6 -967 c-4 -533 -10 -1201 -14 -1485 l-6 -518 -6919 0 -6918
0 0 -180 0 -180 7100 0 7100 0 0 328 c0 269 10 1633 23 3079 l2 283 -1015 2
-1015 3 60 41 c69 48 186 166 234 237 131 192 199 490 173 755 -46 459 -289
766 -707 891 -126 38 -255 51 -498 51 l-227 0 2 -187z m708 -1917 c0 -23 -2
-24 -32 -15 -18 5 -35 9 -38 10 -6 1 52 28 63 29 4 0 7 -11 7 -24z"/>
<path d="M31104 21361 c-58 -35 -62 -47 -139 -336 -93 -347 -230 -593 -393
-707 -41 -28 -196 -88 -228 -88 -12 0 -14 -30 -12 -192 l3 -193 478 0 478 0
-1 705 c0 388 -3 716 -7 730 -22 86 -107 125 -179 81z"/>
<path d="M28238 21115 c-40 -22 -63 -68 -103 -205 -64 -220 -136 -357 -250
-478 -119 -127 -265 -214 -413 -249 l-72 -17 0 -205 0 -204 73 6 c126 11 251
55 372 132 95 60 280 253 364 380 141 214 229 437 238 606 5 88 4 101 -20 152
-40 87 -117 121 -189 82z"/>
</g>
</svg>
